<svg width="37" height="38" viewBox="0 0 37 38" fill="none" xmlns="http://www.w3.org/2000/svg">
<rect y="0.88916" width="36.1965" height="36.1965" rx="6.03275" fill="#003F63"/>
<mask id="path-2-outside-1_13979_16" maskUnits="userSpaceOnUse" x="7.04443" y="7.93298" width="22" height="22" fill="black">
<rect fill="white" x="7.04443" y="7.93298" width="22" height="22"/>
<path d="M18.0882 8.93306C17.8922 8.93608 17.705 9.01946 17.5664 9.16548L15.0555 11.8099C14.9832 11.883 14.9254 11.9706 14.8857 12.0675C14.8459 12.1644 14.8249 12.2686 14.8239 12.3742C14.8229 12.4797 14.8419 12.5844 14.8797 12.6821C14.9176 12.7799 14.9736 12.8686 15.0445 12.9433C15.1154 13.0179 15.1997 13.0769 15.2925 13.1168C15.3853 13.1567 15.4847 13.1767 15.5849 13.1756C15.6851 13.1745 15.7841 13.1524 15.8761 13.1105C15.9681 13.0687 16.0512 13.0079 16.1207 12.9318L17.3457 11.6416V28.2375C17.3443 28.3426 17.3628 28.447 17.4 28.5446C17.4372 28.6421 17.4925 28.7309 17.5626 28.8058C17.6326 28.8806 17.7162 28.9401 17.8083 28.9807C17.9004 29.0213 17.9992 29.0421 18.099 29.0421C18.1988 29.0421 18.2977 29.0213 18.3898 28.9807C18.4819 28.9401 18.5654 28.8806 18.6355 28.8058C18.7056 28.7309 18.7608 28.6421 18.7981 28.5446C18.8353 28.447 18.8537 28.3426 18.8523 28.2375V11.6416L20.0774 12.9318C20.1468 13.0079 20.2299 13.0687 20.3219 13.1105C20.4139 13.1524 20.5129 13.1745 20.6132 13.1756C20.7134 13.1767 20.8128 13.1567 20.9056 13.1168C20.9984 13.0769 21.0827 13.0179 21.1535 12.9433C21.2244 12.8686 21.2804 12.7799 21.3183 12.6821C21.3562 12.5844 21.3752 12.4797 21.3741 12.3742C21.3731 12.2686 21.3521 12.1644 21.3124 12.0675C21.2726 11.9706 21.2149 11.883 21.1426 11.8099L18.6316 9.16548C18.5604 9.09045 18.4756 9.03122 18.3823 8.9913C18.2889 8.95138 18.189 8.93157 18.0882 8.93306ZM12.313 14.222C12.117 14.225 11.9298 14.3083 11.7912 14.4544L9.28024 17.0988C9.20794 17.1719 9.15023 17.2595 9.11047 17.3564C9.0707 17.4533 9.0497 17.5575 9.04868 17.6631C9.04766 17.7686 9.06665 17.8733 9.10453 17.971C9.14241 18.0688 9.19843 18.1575 9.2693 18.2322C9.34016 18.3068 9.42446 18.3658 9.51725 18.4057C9.61003 18.4456 9.70945 18.4656 9.80966 18.4645C9.90988 18.4634 10.0089 18.4413 10.1009 18.3994C10.1929 18.3576 10.276 18.2968 10.3454 18.2206L11.5705 16.9304V24.5353C11.5705 26.1776 10.3678 27.4442 8.80845 27.4442C8.70863 27.4427 8.60953 27.4621 8.5169 27.5013C8.42427 27.5405 8.33996 27.5987 8.26887 27.6725C8.19778 27.7464 8.14133 27.8343 8.1028 27.9313C8.06427 28.0283 8.04443 28.1324 8.04443 28.2375C8.04443 28.3427 8.06427 28.4467 8.1028 28.5437C8.14133 28.6407 8.19778 28.7287 8.26887 28.8025C8.33996 28.8763 8.42427 28.9345 8.5169 28.9737C8.60953 29.0129 8.70863 29.0323 8.80845 29.0309C11.1662 29.0309 13.0771 27.0184 13.0771 24.5353V16.9304L14.3022 18.2206C14.3716 18.2968 14.4547 18.3576 14.5467 18.3994C14.6387 18.4413 14.7377 18.4634 14.8379 18.4645C14.9382 18.4656 15.0376 18.4456 15.1304 18.4057C15.2231 18.3658 15.3074 18.3068 15.3783 18.2322C15.4492 18.1575 15.5052 18.0688 15.5431 17.971C15.581 17.8733 15.5999 17.7686 15.5989 17.6631C15.5979 17.5575 15.5769 17.4533 15.5371 17.3564C15.4974 17.2595 15.4397 17.1719 15.3674 17.0988L12.8564 14.4544C12.7852 14.3793 12.7004 14.3201 12.6071 14.2802C12.5137 14.2403 12.4137 14.2205 12.313 14.222ZM23.8634 14.222C23.6674 14.225 23.4802 14.3083 23.3416 14.4544L20.8307 17.0988C20.7584 17.1719 20.7007 17.2595 20.6609 17.3564C20.6211 17.4533 20.6001 17.5575 20.5991 17.6631C20.5981 17.7686 20.6171 17.8733 20.655 17.971C20.6928 18.0688 20.7489 18.1575 20.8197 18.2322C20.8906 18.3068 20.9749 18.3658 21.0677 18.4057C21.1605 18.4456 21.2599 18.4656 21.3601 18.4645C21.4603 18.4634 21.5593 18.4413 21.6513 18.3994C21.7433 18.3576 21.8265 18.2968 21.8959 18.2206L23.1209 16.9304V24.5353C23.1209 27.0184 25.0319 29.0309 27.3896 29.0309C27.4894 29.0323 27.5885 29.0129 27.6811 28.9737C27.7738 28.9345 27.8581 28.8763 27.9292 28.8025C28.0002 28.7287 28.0567 28.6407 28.0952 28.5437C28.1338 28.4467 28.1536 28.3427 28.1536 28.2375C28.1536 28.1324 28.1338 28.0283 28.0952 27.9313C28.0567 27.8343 28.0002 27.7464 27.9292 27.6725C27.8581 27.5987 27.7738 27.5405 27.6811 27.5013C27.5885 27.4621 27.4894 27.4427 27.3896 27.4442C25.8302 27.4442 24.6275 26.1776 24.6275 24.5353V16.9304L25.8526 18.2206C25.922 18.2968 26.0051 18.3576 26.0971 18.3994C26.1891 18.4413 26.2882 18.4634 26.3884 18.4645C26.4886 18.4656 26.588 18.4456 26.6808 18.4057C26.7736 18.3658 26.8579 18.3068 26.9287 18.2322C26.9996 18.1575 27.0556 18.0688 27.0935 17.971C27.1314 17.8733 27.1504 17.7686 27.1494 17.6631C27.1483 17.5575 27.1273 17.4533 27.0876 17.3564C27.0478 17.2595 26.9901 17.1719 26.9178 17.0988L24.4068 14.4544C24.3356 14.3793 24.2508 14.3201 24.1575 14.2802C24.0642 14.2403 23.9642 14.2205 23.8634 14.222Z"/>
</mask>
<path d="M18.0882 8.93306C17.8922 8.93608 17.705 9.01946 17.5664 9.16548L15.0555 11.8099C14.9832 11.883 14.9254 11.9706 14.8857 12.0675C14.8459 12.1644 14.8249 12.2686 14.8239 12.3742C14.8229 12.4797 14.8419 12.5844 14.8797 12.6821C14.9176 12.7799 14.9736 12.8686 15.0445 12.9433C15.1154 13.0179 15.1997 13.0769 15.2925 13.1168C15.3853 13.1567 15.4847 13.1767 15.5849 13.1756C15.6851 13.1745 15.7841 13.1524 15.8761 13.1105C15.9681 13.0687 16.0512 13.0079 16.1207 12.9318L17.3457 11.6416V28.2375C17.3443 28.3426 17.3628 28.447 17.4 28.5446C17.4372 28.6421 17.4925 28.7309 17.5626 28.8058C17.6326 28.8806 17.7162 28.9401 17.8083 28.9807C17.9004 29.0213 17.9992 29.0421 18.099 29.0421C18.1988 29.0421 18.2977 29.0213 18.3898 28.9807C18.4819 28.9401 18.5654 28.8806 18.6355 28.8058C18.7056 28.7309 18.7608 28.6421 18.7981 28.5446C18.8353 28.447 18.8537 28.3426 18.8523 28.2375V11.6416L20.0774 12.9318C20.1468 13.0079 20.2299 13.0687 20.3219 13.1105C20.4139 13.1524 20.5129 13.1745 20.6132 13.1756C20.7134 13.1767 20.8128 13.1567 20.9056 13.1168C20.9984 13.0769 21.0827 13.0179 21.1535 12.9433C21.2244 12.8686 21.2804 12.7799 21.3183 12.6821C21.3562 12.5844 21.3752 12.4797 21.3741 12.3742C21.3731 12.2686 21.3521 12.1644 21.3124 12.0675C21.2726 11.9706 21.2149 11.883 21.1426 11.8099L18.6316 9.16548C18.5604 9.09045 18.4756 9.03122 18.3823 8.9913C18.2889 8.95138 18.189 8.93157 18.0882 8.93306ZM12.313 14.222C12.117 14.225 11.9298 14.3083 11.7912 14.4544L9.28024 17.0988C9.20794 17.1719 9.15023 17.2595 9.11047 17.3564C9.0707 17.4533 9.0497 17.5575 9.04868 17.6631C9.04766 17.7686 9.06665 17.8733 9.10453 17.971C9.14241 18.0688 9.19843 18.1575 9.2693 18.2322C9.34016 18.3068 9.42446 18.3658 9.51725 18.4057C9.61003 18.4456 9.70945 18.4656 9.80966 18.4645C9.90988 18.4634 10.0089 18.4413 10.1009 18.3994C10.1929 18.3576 10.276 18.2968 10.3454 18.2206L11.5705 16.9304V24.5353C11.5705 26.1776 10.3678 27.4442 8.80845 27.4442C8.70863 27.4427 8.60953 27.4621 8.5169 27.5013C8.42427 27.5405 8.33996 27.5987 8.26887 27.6725C8.19778 27.7464 8.14133 27.8343 8.1028 27.9313C8.06427 28.0283 8.04443 28.1324 8.04443 28.2375C8.04443 28.3427 8.06427 28.4467 8.1028 28.5437C8.14133 28.6407 8.19778 28.7287 8.26887 28.8025C8.33996 28.8763 8.42427 28.9345 8.5169 28.9737C8.60953 29.0129 8.70863 29.0323 8.80845 29.0309C11.1662 29.0309 13.0771 27.0184 13.0771 24.5353V16.9304L14.3022 18.2206C14.3716 18.2968 14.4547 18.3576 14.5467 18.3994C14.6387 18.4413 14.7377 18.4634 14.8379 18.4645C14.9382 18.4656 15.0376 18.4456 15.1304 18.4057C15.2231 18.3658 15.3074 18.3068 15.3783 18.2322C15.4492 18.1575 15.5052 18.0688 15.5431 17.971C15.581 17.8733 15.5999 17.7686 15.5989 17.6631C15.5979 17.5575 15.5769 17.4533 15.5371 17.3564C15.4974 17.2595 15.4397 17.1719 15.3674 17.0988L12.8564 14.4544C12.7852 14.3793 12.7004 14.3201 12.6071 14.2802C12.5137 14.2403 12.4137 14.2205 12.313 14.222ZM23.8634 14.222C23.6674 14.225 23.4802 14.3083 23.3416 14.4544L20.8307 17.0988C20.7584 17.1719 20.7007 17.2595 20.6609 17.3564C20.6211 17.4533 20.6001 17.5575 20.5991 17.6631C20.5981 17.7686 20.6171 17.8733 20.655 17.971C20.6928 18.0688 20.7489 18.1575 20.8197 18.2322C20.8906 18.3068 20.9749 18.3658 21.0677 18.4057C21.1605 18.4456 21.2599 18.4656 21.3601 18.4645C21.4603 18.4634 21.5593 18.4413 21.6513 18.3994C21.7433 18.3576 21.8265 18.2968 21.8959 18.2206L23.1209 16.9304V24.5353C23.1209 27.0184 25.0319 29.0309 27.3896 29.0309C27.4894 29.0323 27.5885 29.0129 27.6811 28.9737C27.7738 28.9345 27.8581 28.8763 27.9292 28.8025C28.0002 28.7287 28.0567 28.6407 28.0952 28.5437C28.1338 28.4467 28.1536 28.3427 28.1536 28.2375C28.1536 28.1324 28.1338 28.0283 28.0952 27.9313C28.0567 27.8343 28.0002 27.7464 27.9292 27.6725C27.8581 27.5987 27.7738 27.5405 27.6811 27.5013C27.5885 27.4621 27.4894 27.4427 27.3896 27.4442C25.8302 27.4442 24.6275 26.1776 24.6275 24.5353V16.9304L25.8526 18.2206C25.922 18.2968 26.0051 18.3576 26.0971 18.3994C26.1891 18.4413 26.2882 18.4634 26.3884 18.4645C26.4886 18.4656 26.588 18.4456 26.6808 18.4057C26.7736 18.3658 26.8579 18.3068 26.9287 18.2322C26.9996 18.1575 27.0556 18.0688 27.0935 17.971C27.1314 17.8733 27.1504 17.7686 27.1494 17.6631C27.1483 17.5575 27.1273 17.4533 27.0876 17.3564C27.0478 17.2595 26.9901 17.1719 26.9178 17.0988L24.4068 14.4544C24.3356 14.3793 24.2508 14.3201 24.1575 14.2802C24.0642 14.2403 23.9642 14.2205 23.8634 14.222Z" fill="#01E678"/>
<path d="M18.0882 8.93306C17.8922 8.93608 17.705 9.01946 17.5664 9.16548L15.0555 11.8099C14.9832 11.883 14.9254 11.9706 14.8857 12.0675C14.8459 12.1644 14.8249 12.2686 14.8239 12.3742C14.8229 12.4797 14.8419 12.5844 14.8797 12.6821C14.9176 12.7799 14.9736 12.8686 15.0445 12.9433C15.1154 13.0179 15.1997 13.0769 15.2925 13.1168C15.3853 13.1567 15.4847 13.1767 15.5849 13.1756C15.6851 13.1745 15.7841 13.1524 15.8761 13.1105C15.9681 13.0687 16.0512 13.0079 16.1207 12.9318L17.3457 11.6416V28.2375C17.3443 28.3426 17.3628 28.447 17.4 28.5446C17.4372 28.6421 17.4925 28.7309 17.5626 28.8058C17.6326 28.8806 17.7162 28.9401 17.8083 28.9807C17.9004 29.0213 17.9992 29.0421 18.099 29.0421C18.1988 29.0421 18.2977 29.0213 18.3898 28.9807C18.4819 28.9401 18.5654 28.8806 18.6355 28.8058C18.7056 28.7309 18.7608 28.6421 18.7981 28.5446C18.8353 28.447 18.8537 28.3426 18.8523 28.2375V11.6416L20.0774 12.9318C20.1468 13.0079 20.2299 13.0687 20.3219 13.1105C20.4139 13.1524 20.5129 13.1745 20.6132 13.1756C20.7134 13.1767 20.8128 13.1567 20.9056 13.1168C20.9984 13.0769 21.0827 13.0179 21.1535 12.9433C21.2244 12.8686 21.2804 12.7799 21.3183 12.6821C21.3562 12.5844 21.3752 12.4797 21.3741 12.3742C21.3731 12.2686 21.3521 12.1644 21.3124 12.0675C21.2726 11.9706 21.2149 11.883 21.1426 11.8099L18.6316 9.16548C18.5604 9.09045 18.4756 9.03122 18.3823 8.9913C18.2889 8.95138 18.189 8.93157 18.0882 8.93306ZM12.313 14.222C12.117 14.225 11.9298 14.3083 11.7912 14.4544L9.28024 17.0988C9.20794 17.1719 9.15023 17.2595 9.11047 17.3564C9.0707 17.4533 9.0497 17.5575 9.04868 17.6631C9.04766 17.7686 9.06665 17.8733 9.10453 17.971C9.14241 18.0688 9.19843 18.1575 9.2693 18.2322C9.34016 18.3068 9.42446 18.3658 9.51725 18.4057C9.61003 18.4456 9.70945 18.4656 9.80966 18.4645C9.90988 18.4634 10.0089 18.4413 10.1009 18.3994C10.1929 18.3576 10.276 18.2968 10.3454 18.2206L11.5705 16.9304V24.5353C11.5705 26.1776 10.3678 27.4442 8.80845 27.4442C8.70863 27.4427 8.60953 27.4621 8.5169 27.5013C8.42427 27.5405 8.33996 27.5987 8.26887 27.6725C8.19778 27.7464 8.14133 27.8343 8.1028 27.9313C8.06427 28.0283 8.04443 28.1324 8.04443 28.2375C8.04443 28.3427 8.06427 28.4467 8.1028 28.5437C8.14133 28.6407 8.19778 28.7287 8.26887 28.8025C8.33996 28.8763 8.42427 28.9345 8.5169 28.9737C8.60953 29.0129 8.70863 29.0323 8.80845 29.0309C11.1662 29.0309 13.0771 27.0184 13.0771 24.5353V16.9304L14.3022 18.2206C14.3716 18.2968 14.4547 18.3576 14.5467 18.3994C14.6387 18.4413 14.7377 18.4634 14.8379 18.4645C14.9382 18.4656 15.0376 18.4456 15.1304 18.4057C15.2231 18.3658 15.3074 18.3068 15.3783 18.2322C15.4492 18.1575 15.5052 18.0688 15.5431 17.971C15.581 17.8733 15.5999 17.7686 15.5989 17.6631C15.5979 17.5575 15.5769 17.4533 15.5371 17.3564C15.4974 17.2595 15.4397 17.1719 15.3674 17.0988L12.8564 14.4544C12.7852 14.3793 12.7004 14.3201 12.6071 14.2802C12.5137 14.2403 12.4137 14.2205 12.313 14.222ZM23.8634 14.222C23.6674 14.225 23.4802 14.3083 23.3416 14.4544L20.8307 17.0988C20.7584 17.1719 20.7007 17.2595 20.6609 17.3564C20.6211 17.4533 20.6001 17.5575 20.5991 17.6631C20.5981 17.7686 20.6171 17.8733 20.655 17.971C20.6928 18.0688 20.7489 18.1575 20.8197 18.2322C20.8906 18.3068 20.9749 18.3658 21.0677 18.4057C21.1605 18.4456 21.2599 18.4656 21.3601 18.4645C21.4603 18.4634 21.5593 18.4413 21.6513 18.3994C21.7433 18.3576 21.8265 18.2968 21.8959 18.2206L23.1209 16.9304V24.5353C23.1209 27.0184 25.0319 29.0309 27.3896 29.0309C27.4894 29.0323 27.5885 29.0129 27.6811 28.9737C27.7738 28.9345 27.8581 28.8763 27.9292 28.8025C28.0002 28.7287 28.0567 28.6407 28.0952 28.5437C28.1338 28.4467 28.1536 28.3427 28.1536 28.2375C28.1536 28.1324 28.1338 28.0283 28.0952 27.9313C28.0567 27.8343 28.0002 27.7464 27.9292 27.6725C27.8581 27.5987 27.7738 27.5405 27.6811 27.5013C27.5885 27.4621 27.4894 27.4427 27.3896 27.4442C25.8302 27.4442 24.6275 26.1776 24.6275 24.5353V16.9304L25.8526 18.2206C25.922 18.2968 26.0051 18.3576 26.0971 18.3994C26.1891 18.4413 26.2882 18.4634 26.3884 18.4645C26.4886 18.4656 26.588 18.4456 26.6808 18.4057C26.7736 18.3658 26.8579 18.3068 26.9287 18.2322C26.9996 18.1575 27.0556 18.0688 27.0935 17.971C27.1314 17.8733 27.1504 17.7686 27.1494 17.6631C27.1483 17.5575 27.1273 17.4533 27.0876 17.3564C27.0478 17.2595 26.9901 17.1719 26.9178 17.0988L24.4068 14.4544C24.3356 14.3793 24.2508 14.3201 24.1575 14.2802C24.0642 14.2403 23.9642 14.2205 23.8634 14.222Z" stroke="#01E678" stroke-width="0.502729" mask="url(#path-2-outside-1_13979_16)"/>
<path d="M18.0853 8.80739L18.0852 8.80739C17.8544 8.81095 17.6353 8.90916 17.4742 9.07896L14.9641 11.7225C14.8804 11.8073 14.814 11.9084 14.7683 12.0198C14.7224 12.1315 14.6983 12.2516 14.6971 12.373C14.6959 12.4943 14.7178 12.6149 14.7615 12.7276C14.8052 12.8403 14.8699 12.9431 14.9523 13.0298C15.0346 13.1166 15.133 13.1855 15.2417 13.2323C15.3505 13.279 15.4672 13.3026 15.5851 13.3013C15.703 13.3 15.8193 13.274 15.9271 13.2249C16.0344 13.1761 16.1311 13.1054 16.2115 13.0174L17.2189 11.9564V28.2367C17.2174 28.3573 17.2386 28.4772 17.2815 28.5894C17.3244 28.7019 17.3883 28.8047 17.4697 28.8917C17.5512 28.9787 17.6486 29.0481 17.7565 29.0957C17.8644 29.1432 17.9805 29.1678 18.0979 29.1678C18.2153 29.1678 18.3314 29.1432 18.4393 29.0957C18.5473 29.0481 18.6447 28.9787 18.7261 28.8917C18.8076 28.8047 18.8714 28.7019 18.9144 28.5894C18.9572 28.4772 18.9784 28.3573 18.9769 28.2367V11.9564L19.9843 13.0174C20.0647 13.1054 20.1614 13.1761 20.2688 13.2249C20.3766 13.274 20.4928 13.3 20.6107 13.3013C20.7286 13.3026 20.8454 13.279 20.9541 13.2323C21.0628 13.1855 21.1612 13.1166 21.2436 13.0298C21.3259 12.9431 21.3907 12.8403 21.4344 12.7276C21.4781 12.6149 21.4999 12.4943 21.4987 12.373C21.4975 12.2516 21.4734 12.1315 21.4275 12.0198C21.3818 11.9084 21.3154 11.8073 21.2318 11.7225L18.7217 9.07896C18.7217 9.07896 18.7217 9.07895 18.7217 9.07894C18.6389 8.99174 18.54 8.92252 18.4306 8.87574C18.3212 8.82895 18.2037 8.80564 18.0853 8.80739Z" fill="#01E678" stroke="#01E678" stroke-width="0.251365"/>
</svg>
